<?xml version="1.0" encoding="iso-8859-1"?>
<!-- Generator: Adobe Illustrator 19.1.0, SVG Export Plug-In . SVG Version: 6.00 Build 0)  -->
<svg version="1.1" id="Capa_1" xmlns="http://www.w3.org/2000/svg" xmlns:xlink="http://www.w3.org/1999/xlink" x="0px" y="0px"
	 viewBox="0 0 313.585 313.585" style="enable-background:new 0 0 313.585 313.585;" xml:space="preserve">
<g>
	<path d="M260.287,69.493c3.541,0,6.427,2.879,6.427,6.427v26.511v12.854h12.854h14.737c3.541,0,6.427,2.879,6.427,6.427v70.162
		c0,3.548-2.886,6.427-6.427,6.427h-14.737h-12.854v12.854v26.511c0,3.548-2.886,6.427-6.427,6.427H19.281
		c-3.554,0-6.427-2.879-6.427-6.427V75.92c0-3.548,2.873-6.427,6.427-6.427H260.287 M260.287,56.64H19.281
		C8.631,56.64,0,65.271,0,75.92v161.744c0,10.636,8.631,19.281,19.281,19.281h241.006c10.636,0,19.281-8.644,19.281-19.281v-26.511
		h14.737c10.636,0,19.28-8.638,19.28-19.281v-70.162c0-10.643-8.644-19.281-19.28-19.281h-14.737V75.92
		C279.567,65.264,270.93,56.64,260.287,56.64L260.287,56.64z M218.275,167.792h-27.34V145.78h26.524c3.843,0,6.954-3.104,6.954-6.96
		c0-3.843-3.111-6.96-6.954-6.96h-26.524v-16.311h-22.218v0.084c-0.54-0.019-1.067-0.084-1.607-0.084
		c-20.206,0-36.993,14.55-40.528,33.741H63.748c-4.152,0-7.5,3.355-7.5,7.5s3.348,7.5,7.5,7.5h62.835
		c3.528,19.184,20.315,33.741,40.528,33.741c0.54,0,1.067-0.071,1.607-0.084v0.096h22.218v-16.324h27.34
		c3.843,0,6.967-3.117,6.967-6.96C225.241,170.909,222.118,167.792,218.275,167.792z"/>
</g>
<g>
</g>
<g>
</g>
<g>
</g>
<g>
</g>
<g>
</g>
<g>
</g>
<g>
</g>
<g>
</g>
<g>
</g>
<g>
</g>
<g>
</g>
<g>
</g>
<g>
</g>
<g>
</g>
<g>
</g>
</svg>
